<mxfile host="app.diagrams.net" modified="2024-04-02T06:33:30.806Z" agent="Mozilla/5.0 (Windows NT 10.0; Win64; x64) AppleWebKit/537.36 (KHTML, like Gecko) Chrome/123.0.0.0 Safari/537.36" etag="1E-IAFrzcdHEPDvaHYoW" version="24.2.1" type="device">
  <diagram name="페이지-1" id="ynI7WpNmkSFVbo9x831N">
    <mxGraphModel dx="1434" dy="746" grid="1" gridSize="10" guides="1" tooltips="1" connect="1" arrows="1" fold="1" page="1" pageScale="1" pageWidth="827" pageHeight="1169" math="0" shadow="0">
      <root>
        <mxCell id="0" />
        <mxCell id="1" parent="0" />
        <mxCell id="2TqGuWrXQzq1hM1gKgUR-7" style="rounded=0;orthogonalLoop=1;jettySize=auto;html=1;exitX=0.5;exitY=1;exitDx=0;exitDy=0;entryX=0.5;entryY=0;entryDx=0;entryDy=0;labelBackgroundColor=none;fontColor=default;" parent="1" source="2TqGuWrXQzq1hM1gKgUR-1" target="2TqGuWrXQzq1hM1gKgUR-3" edge="1">
          <mxGeometry relative="1" as="geometry" />
        </mxCell>
        <mxCell id="2TqGuWrXQzq1hM1gKgUR-8" style="rounded=0;orthogonalLoop=1;jettySize=auto;html=1;exitX=0.5;exitY=1;exitDx=0;exitDy=0;entryX=0.5;entryY=0;entryDx=0;entryDy=0;labelBackgroundColor=none;fontColor=default;" parent="1" source="2TqGuWrXQzq1hM1gKgUR-1" target="2TqGuWrXQzq1hM1gKgUR-4" edge="1">
          <mxGeometry relative="1" as="geometry" />
        </mxCell>
        <mxCell id="2TqGuWrXQzq1hM1gKgUR-9" style="rounded=0;orthogonalLoop=1;jettySize=auto;html=1;exitX=0.5;exitY=1;exitDx=0;exitDy=0;entryX=0.5;entryY=0;entryDx=0;entryDy=0;labelBackgroundColor=none;fontColor=default;" parent="1" source="2TqGuWrXQzq1hM1gKgUR-1" target="2TqGuWrXQzq1hM1gKgUR-5" edge="1">
          <mxGeometry relative="1" as="geometry" />
        </mxCell>
        <mxCell id="gN5Aygna0xOIa7XHVr_V-47" style="edgeStyle=none;curved=1;rounded=0;orthogonalLoop=1;jettySize=auto;html=1;exitX=0.5;exitY=1;exitDx=0;exitDy=0;entryX=1;entryY=0.5;entryDx=0;entryDy=0;fontSize=12;startSize=8;endSize=8;" parent="1" source="2TqGuWrXQzq1hM1gKgUR-1" target="gN5Aygna0xOIa7XHVr_V-7" edge="1">
          <mxGeometry relative="1" as="geometry" />
        </mxCell>
        <mxCell id="2TqGuWrXQzq1hM1gKgUR-1" value="traffic&lt;div&gt;&lt;font style=&quot;font-size: 10px;&quot;&gt;(교통편)&lt;/font&gt;&lt;/div&gt;" style="rounded=0;whiteSpace=wrap;html=1;labelBackgroundColor=none;" parent="1" vertex="1">
          <mxGeometry x="150" y="60" width="100" height="50" as="geometry" />
        </mxCell>
        <mxCell id="2TqGuWrXQzq1hM1gKgUR-2" value="&lt;font style=&quot;font-size: 10px;&quot;&gt;ttype&lt;/font&gt;&lt;div&gt;&lt;font style=&quot;font-size: 10px;&quot;&gt;(종류)&lt;/font&gt;&lt;/div&gt;" style="ellipse;whiteSpace=wrap;html=1;labelBackgroundColor=none;rounded=0;" parent="1" vertex="1">
          <mxGeometry x="40" y="140" width="70" height="40" as="geometry" />
        </mxCell>
        <mxCell id="2TqGuWrXQzq1hM1gKgUR-3" value="&lt;font size=&quot;1&quot;&gt;no&lt;/font&gt;&lt;div&gt;&lt;font size=&quot;1&quot;&gt;(번호)&lt;/font&gt;&lt;/div&gt;" style="ellipse;whiteSpace=wrap;html=1;labelBackgroundColor=none;rounded=0;" parent="1" vertex="1">
          <mxGeometry x="125" y="140" width="70" height="40" as="geometry" />
        </mxCell>
        <mxCell id="2TqGuWrXQzq1hM1gKgUR-4" value="&lt;font size=&quot;1&quot;&gt;route&lt;/font&gt;&lt;br&gt;&lt;div&gt;&lt;font size=&quot;1&quot;&gt;(노선도)&lt;/font&gt;&lt;/div&gt;" style="ellipse;whiteSpace=wrap;html=1;labelBackgroundColor=none;rounded=0;" parent="1" vertex="1">
          <mxGeometry x="210" y="140" width="70" height="40" as="geometry" />
        </mxCell>
        <mxCell id="2TqGuWrXQzq1hM1gKgUR-5" value="&lt;div&gt;&lt;font size=&quot;1&quot;&gt;comm&lt;/font&gt;&lt;/div&gt;&lt;div&gt;&lt;font size=&quot;1&quot;&gt;(설명)&lt;/font&gt;&lt;/div&gt;" style="ellipse;whiteSpace=wrap;html=1;labelBackgroundColor=none;rounded=0;" parent="1" vertex="1">
          <mxGeometry x="300" y="140" width="70" height="40" as="geometry" />
        </mxCell>
        <mxCell id="2TqGuWrXQzq1hM1gKgUR-6" style="rounded=0;orthogonalLoop=1;jettySize=auto;html=1;exitX=0.5;exitY=1;exitDx=0;exitDy=0;entryX=0.635;entryY=0.064;entryDx=0;entryDy=0;entryPerimeter=0;labelBackgroundColor=none;fontColor=default;" parent="1" source="2TqGuWrXQzq1hM1gKgUR-1" target="2TqGuWrXQzq1hM1gKgUR-2" edge="1">
          <mxGeometry relative="1" as="geometry" />
        </mxCell>
        <mxCell id="2TqGuWrXQzq1hM1gKgUR-10" style="rounded=0;orthogonalLoop=1;jettySize=auto;html=1;exitX=0.5;exitY=1;exitDx=0;exitDy=0;entryX=0.5;entryY=0;entryDx=0;entryDy=0;labelBackgroundColor=none;fontColor=default;" parent="1" source="2TqGuWrXQzq1hM1gKgUR-13" target="2TqGuWrXQzq1hM1gKgUR-15" edge="1">
          <mxGeometry relative="1" as="geometry" />
        </mxCell>
        <mxCell id="2TqGuWrXQzq1hM1gKgUR-11" style="rounded=0;orthogonalLoop=1;jettySize=auto;html=1;exitX=0.5;exitY=1;exitDx=0;exitDy=0;entryX=0.5;entryY=0;entryDx=0;entryDy=0;labelBackgroundColor=none;fontColor=default;" parent="1" source="2TqGuWrXQzq1hM1gKgUR-13" target="2TqGuWrXQzq1hM1gKgUR-16" edge="1">
          <mxGeometry relative="1" as="geometry" />
        </mxCell>
        <mxCell id="2TqGuWrXQzq1hM1gKgUR-12" style="rounded=0;orthogonalLoop=1;jettySize=auto;html=1;exitX=0.5;exitY=1;exitDx=0;exitDy=0;entryX=0.5;entryY=0;entryDx=0;entryDy=0;labelBackgroundColor=none;fontColor=default;" parent="1" source="2TqGuWrXQzq1hM1gKgUR-13" target="2TqGuWrXQzq1hM1gKgUR-17" edge="1">
          <mxGeometry relative="1" as="geometry" />
        </mxCell>
        <mxCell id="2TqGuWrXQzq1hM1gKgUR-23" style="rounded=0;orthogonalLoop=1;jettySize=auto;html=1;exitX=0.5;exitY=1;exitDx=0;exitDy=0;entryX=0.5;entryY=0;entryDx=0;entryDy=0;labelBackgroundColor=none;fontColor=default;" parent="1" source="2TqGuWrXQzq1hM1gKgUR-13" target="2TqGuWrXQzq1hM1gKgUR-19" edge="1">
          <mxGeometry relative="1" as="geometry" />
        </mxCell>
        <mxCell id="2TqGuWrXQzq1hM1gKgUR-24" style="rounded=0;orthogonalLoop=1;jettySize=auto;html=1;exitX=0.5;exitY=1;exitDx=0;exitDy=0;entryX=0.5;entryY=0;entryDx=0;entryDy=0;" parent="1" source="2TqGuWrXQzq1hM1gKgUR-13" target="2TqGuWrXQzq1hM1gKgUR-20" edge="1">
          <mxGeometry relative="1" as="geometry">
            <mxPoint x="490" y="316" as="targetPoint" />
          </mxGeometry>
        </mxCell>
        <mxCell id="2TqGuWrXQzq1hM1gKgUR-26" style="rounded=0;orthogonalLoop=1;jettySize=auto;html=1;exitX=0.5;exitY=1;exitDx=0;exitDy=0;entryX=0.5;entryY=0;entryDx=0;entryDy=0;" parent="1" source="2TqGuWrXQzq1hM1gKgUR-13" target="2TqGuWrXQzq1hM1gKgUR-21" edge="1">
          <mxGeometry relative="1" as="geometry" />
        </mxCell>
        <mxCell id="2TqGuWrXQzq1hM1gKgUR-27" style="rounded=0;orthogonalLoop=1;jettySize=auto;html=1;exitX=0.5;exitY=1;exitDx=0;exitDy=0;entryX=0.5;entryY=0;entryDx=0;entryDy=0;" parent="1" source="2TqGuWrXQzq1hM1gKgUR-13" target="2TqGuWrXQzq1hM1gKgUR-22" edge="1">
          <mxGeometry relative="1" as="geometry" />
        </mxCell>
        <mxCell id="2TqGuWrXQzq1hM1gKgUR-13" value="&lt;div&gt;&lt;font style=&quot;font-size: 10px;&quot;&gt;guide&lt;/font&gt;&lt;/div&gt;&lt;div&gt;&lt;font style=&quot;font-size: 10px;&quot;&gt;(안내사항)&lt;/font&gt;&lt;/div&gt;" style="rounded=0;whiteSpace=wrap;html=1;labelBackgroundColor=none;" parent="1" vertex="1">
          <mxGeometry x="340" y="210" width="100" height="50" as="geometry" />
        </mxCell>
        <mxCell id="2TqGuWrXQzq1hM1gKgUR-14" value="&lt;span style=&quot;font-size: 10px;&quot;&gt;&lt;font color=&quot;#ff0000&quot;&gt;&lt;u&gt;pcode&lt;/u&gt;&lt;/font&gt;&lt;/span&gt;&lt;div&gt;&lt;span style=&quot;font-size: 10px;&quot;&gt;&lt;font color=&quot;#ff0000&quot;&gt;&lt;u&gt;(장소코드)&lt;/u&gt;&lt;/font&gt;&lt;/span&gt;&lt;/div&gt;" style="ellipse;whiteSpace=wrap;html=1;labelBackgroundColor=none;rounded=0;" parent="1" vertex="1">
          <mxGeometry x="40" y="310" width="70" height="40" as="geometry" />
        </mxCell>
        <mxCell id="2TqGuWrXQzq1hM1gKgUR-15" value="&lt;font size=&quot;1&quot;&gt;pname&lt;/font&gt;&lt;div&gt;&lt;font size=&quot;1&quot;&gt;(장소이름)&lt;/font&gt;&lt;/div&gt;" style="ellipse;whiteSpace=wrap;html=1;labelBackgroundColor=none;rounded=0;" parent="1" vertex="1">
          <mxGeometry x="125" y="310" width="70" height="40" as="geometry" />
        </mxCell>
        <mxCell id="2TqGuWrXQzq1hM1gKgUR-16" value="&lt;font size=&quot;1&quot;&gt;ptype&lt;/font&gt;&lt;div&gt;&lt;font size=&quot;1&quot;&gt;(장소종류)&lt;/font&gt;&lt;/div&gt;" style="ellipse;whiteSpace=wrap;html=1;labelBackgroundColor=none;rounded=0;" parent="1" vertex="1">
          <mxGeometry x="210" y="310" width="70" height="40" as="geometry" />
        </mxCell>
        <mxCell id="2TqGuWrXQzq1hM1gKgUR-17" value="&lt;font size=&quot;1&quot;&gt;paddr&lt;/font&gt;&lt;div&gt;&lt;font size=&quot;1&quot;&gt;(장소주소)&lt;/font&gt;&lt;/div&gt;" style="ellipse;whiteSpace=wrap;html=1;labelBackgroundColor=none;rounded=0;" parent="1" vertex="1">
          <mxGeometry x="300" y="310" width="70" height="40" as="geometry" />
        </mxCell>
        <mxCell id="2TqGuWrXQzq1hM1gKgUR-18" style="rounded=0;orthogonalLoop=1;jettySize=auto;html=1;exitX=0.5;exitY=1;exitDx=0;exitDy=0;entryX=0.635;entryY=0.064;entryDx=0;entryDy=0;entryPerimeter=0;labelBackgroundColor=none;fontColor=default;" parent="1" source="2TqGuWrXQzq1hM1gKgUR-13" target="2TqGuWrXQzq1hM1gKgUR-14" edge="1">
          <mxGeometry relative="1" as="geometry" />
        </mxCell>
        <mxCell id="2TqGuWrXQzq1hM1gKgUR-19" value="&lt;font size=&quot;1&quot;&gt;ptel&lt;/font&gt;&lt;div&gt;&lt;font size=&quot;1&quot;&gt;(장소연락처)&lt;/font&gt;&lt;span style=&quot;color: rgba(0, 0, 0, 0); font-family: monospace; font-size: 0px; text-align: start; text-wrap: nowrap; background-color: initial;&quot;&gt;%3CmxGraphModel%3E%3Croot%3E%3CmxCell%20id%3D%220%22%2F%3E%3CmxCell%20id%3D%221%22%20parent%3D%220%22%2F%3E%3CmxCell%20id%3D%222%22%20value%3D%22%26lt%3Bfont%20size%3D%26quot%3B1%26quot%3B%26gt%3Bpaddr%26lt%3B%2Ffont%26gt%3B%26lt%3Bdiv%26gt%3B%26lt%3Bfont%20size%3D%26quot%3B1%26quot%3B%26gt%3B(%EC%9E%A5%EC%86%8C%EC%A3%BC%EC%86%8C)%26lt%3B%2Ffont%26gt%3B%26lt%3B%2Fdiv%26gt%3B%22%20style%3D%22ellipse%3BwhiteSpace%3Dwrap%3Bhtml%3D1%3B%22%20vertex%3D%221%22%20parent%3D%221%22%3E%3CmxGeometry%20x%3D%22300%22%20y%3D%22310%22%20width%3D%2270%22%20height%3D%2240%22%20as%3D%22geometry%22%2F%3E%3C%2FmxCell%3E%3C%2Froot%3E%3C%2FmxGraphModel%3E&lt;/span&gt;&lt;/div&gt;" style="ellipse;whiteSpace=wrap;html=1;labelBackgroundColor=none;rounded=0;" parent="1" vertex="1">
          <mxGeometry x="390" y="310" width="70" height="40" as="geometry" />
        </mxCell>
        <mxCell id="2TqGuWrXQzq1hM1gKgUR-20" value="&lt;font size=&quot;1&quot;&gt;pgps&lt;/font&gt;&lt;div&gt;&lt;font size=&quot;1&quot;&gt;(장소GPS값)&lt;/font&gt;&lt;/div&gt;" style="ellipse;whiteSpace=wrap;html=1;labelBackgroundColor=none;rounded=0;" parent="1" vertex="1">
          <mxGeometry x="480" y="310" width="70" height="40" as="geometry" />
        </mxCell>
        <mxCell id="2TqGuWrXQzq1hM1gKgUR-21" value="&lt;font size=&quot;1&quot;&gt;pcomm&lt;/font&gt;&lt;div&gt;&lt;font size=&quot;1&quot;&gt;(장소설명)&lt;/font&gt;&lt;/div&gt;" style="ellipse;whiteSpace=wrap;html=1;labelBackgroundColor=none;rounded=0;" parent="1" vertex="1">
          <mxGeometry x="570" y="310" width="70" height="40" as="geometry" />
        </mxCell>
        <mxCell id="2TqGuWrXQzq1hM1gKgUR-22" value="&lt;font size=&quot;1&quot;&gt;premark&lt;/font&gt;&lt;div&gt;&lt;font size=&quot;1&quot;&gt;(참고사항)&lt;/font&gt;&lt;/div&gt;" style="ellipse;whiteSpace=wrap;html=1;labelBackgroundColor=none;rounded=0;" parent="1" vertex="1">
          <mxGeometry x="660" y="310" width="70" height="40" as="geometry" />
        </mxCell>
        <mxCell id="2TqGuWrXQzq1hM1gKgUR-28" style="rounded=0;orthogonalLoop=1;jettySize=auto;html=1;exitX=0.5;exitY=1;exitDx=0;exitDy=0;entryX=0.5;entryY=0;entryDx=0;entryDy=0;labelBackgroundColor=none;fontColor=default;" parent="1" source="2TqGuWrXQzq1hM1gKgUR-35" target="2TqGuWrXQzq1hM1gKgUR-37" edge="1">
          <mxGeometry relative="1" as="geometry" />
        </mxCell>
        <mxCell id="2TqGuWrXQzq1hM1gKgUR-29" style="rounded=0;orthogonalLoop=1;jettySize=auto;html=1;exitX=0.5;exitY=1;exitDx=0;exitDy=0;entryX=0.5;entryY=0;entryDx=0;entryDy=0;labelBackgroundColor=none;fontColor=default;" parent="1" source="2TqGuWrXQzq1hM1gKgUR-35" target="2TqGuWrXQzq1hM1gKgUR-38" edge="1">
          <mxGeometry relative="1" as="geometry" />
        </mxCell>
        <mxCell id="2TqGuWrXQzq1hM1gKgUR-30" style="rounded=0;orthogonalLoop=1;jettySize=auto;html=1;exitX=0.5;exitY=1;exitDx=0;exitDy=0;entryX=0.5;entryY=0;entryDx=0;entryDy=0;labelBackgroundColor=none;fontColor=default;" parent="1" source="2TqGuWrXQzq1hM1gKgUR-35" target="2TqGuWrXQzq1hM1gKgUR-39" edge="1">
          <mxGeometry relative="1" as="geometry" />
        </mxCell>
        <mxCell id="2TqGuWrXQzq1hM1gKgUR-31" style="rounded=0;orthogonalLoop=1;jettySize=auto;html=1;exitX=0.5;exitY=1;exitDx=0;exitDy=0;entryX=0.5;entryY=0;entryDx=0;entryDy=0;labelBackgroundColor=none;fontColor=default;" parent="1" source="2TqGuWrXQzq1hM1gKgUR-35" target="2TqGuWrXQzq1hM1gKgUR-41" edge="1">
          <mxGeometry relative="1" as="geometry" />
        </mxCell>
        <mxCell id="2TqGuWrXQzq1hM1gKgUR-35" value="&lt;span style=&quot;font-size: 10px;&quot;&gt;notice&lt;/span&gt;&lt;div&gt;&lt;span style=&quot;font-size: 10px;&quot;&gt;(공지사항)&lt;/span&gt;&lt;/div&gt;" style="rounded=0;whiteSpace=wrap;html=1;labelBackgroundColor=none;" parent="1" vertex="1">
          <mxGeometry x="550" y="40" width="100" height="50" as="geometry" />
        </mxCell>
        <mxCell id="2TqGuWrXQzq1hM1gKgUR-36" value="&lt;span style=&quot;font-size: 10px;&quot;&gt;&lt;font color=&quot;#ff0000&quot;&gt;&lt;u&gt;no&lt;/u&gt;&lt;/font&gt;&lt;/span&gt;&lt;div&gt;&lt;span style=&quot;font-size: 10px;&quot;&gt;&lt;font color=&quot;#ff0000&quot;&gt;&lt;u&gt;(글번호)&lt;/u&gt;&lt;/font&gt;&lt;/span&gt;&lt;/div&gt;" style="ellipse;whiteSpace=wrap;html=1;labelBackgroundColor=none;rounded=0;" parent="1" vertex="1">
          <mxGeometry x="400" y="140" width="70" height="40" as="geometry" />
        </mxCell>
        <mxCell id="2TqGuWrXQzq1hM1gKgUR-37" value="&lt;div&gt;&lt;font size=&quot;1&quot;&gt;title&lt;/font&gt;&lt;/div&gt;&lt;div&gt;&lt;font size=&quot;1&quot;&gt;(글제목)&lt;/font&gt;&lt;/div&gt;" style="ellipse;whiteSpace=wrap;html=1;labelBackgroundColor=none;rounded=0;" parent="1" vertex="1">
          <mxGeometry x="485" y="140" width="70" height="40" as="geometry" />
        </mxCell>
        <mxCell id="2TqGuWrXQzq1hM1gKgUR-38" value="&lt;font size=&quot;1&quot;&gt;content&lt;/font&gt;&lt;div&gt;&lt;font size=&quot;1&quot;&gt;(글내용)&lt;/font&gt;&lt;/div&gt;" style="ellipse;whiteSpace=wrap;html=1;labelBackgroundColor=none;rounded=0;" parent="1" vertex="1">
          <mxGeometry x="570" y="140" width="70" height="40" as="geometry" />
        </mxCell>
        <mxCell id="2TqGuWrXQzq1hM1gKgUR-39" value="&lt;font size=&quot;1&quot;&gt;resdate&lt;/font&gt;&lt;div&gt;&lt;font size=&quot;1&quot;&gt;(작성일시)&lt;/font&gt;&lt;/div&gt;" style="ellipse;whiteSpace=wrap;html=1;labelBackgroundColor=none;rounded=0;" parent="1" vertex="1">
          <mxGeometry x="660" y="140" width="70" height="40" as="geometry" />
        </mxCell>
        <mxCell id="2TqGuWrXQzq1hM1gKgUR-40" style="rounded=0;orthogonalLoop=1;jettySize=auto;html=1;exitX=0.5;exitY=1;exitDx=0;exitDy=0;entryX=0.635;entryY=0.064;entryDx=0;entryDy=0;entryPerimeter=0;labelBackgroundColor=none;fontColor=default;" parent="1" source="2TqGuWrXQzq1hM1gKgUR-35" target="2TqGuWrXQzq1hM1gKgUR-36" edge="1">
          <mxGeometry relative="1" as="geometry" />
        </mxCell>
        <mxCell id="2TqGuWrXQzq1hM1gKgUR-41" value="&lt;font size=&quot;1&quot;&gt;visited&lt;/font&gt;&lt;div&gt;&lt;font size=&quot;1&quot;&gt;(조회수)&lt;/font&gt;&lt;/div&gt;" style="ellipse;whiteSpace=wrap;html=1;labelBackgroundColor=none;rounded=0;" parent="1" vertex="1">
          <mxGeometry x="750" y="140" width="70" height="40" as="geometry" />
        </mxCell>
        <mxCell id="2TqGuWrXQzq1hM1gKgUR-45" style="rounded=0;orthogonalLoop=1;jettySize=auto;html=1;entryX=0.429;entryY=-0.05;entryDx=0;entryDy=0;labelBackgroundColor=none;fontColor=default;entryPerimeter=0;" parent="1" target="2TqGuWrXQzq1hM1gKgUR-51" edge="1">
          <mxGeometry relative="1" as="geometry">
            <mxPoint x="410" y="460" as="sourcePoint" />
          </mxGeometry>
        </mxCell>
        <mxCell id="2TqGuWrXQzq1hM1gKgUR-46" style="rounded=0;orthogonalLoop=1;jettySize=auto;html=1;exitX=0.5;exitY=1;exitDx=0;exitDy=0;entryX=0.5;entryY=0;entryDx=0;entryDy=0;labelBackgroundColor=none;fontColor=default;" parent="1" source="2TqGuWrXQzq1hM1gKgUR-49" target="2TqGuWrXQzq1hM1gKgUR-52" edge="1">
          <mxGeometry relative="1" as="geometry">
            <mxPoint x="440" y="470" as="sourcePoint" />
          </mxGeometry>
        </mxCell>
        <mxCell id="2TqGuWrXQzq1hM1gKgUR-47" style="rounded=0;orthogonalLoop=1;jettySize=auto;html=1;entryX=0.5;entryY=0;entryDx=0;entryDy=0;labelBackgroundColor=none;fontColor=default;exitX=0.5;exitY=1;exitDx=0;exitDy=0;" parent="1" source="2TqGuWrXQzq1hM1gKgUR-49" target="2TqGuWrXQzq1hM1gKgUR-53" edge="1">
          <mxGeometry relative="1" as="geometry">
            <mxPoint x="250" y="470" as="sourcePoint" />
          </mxGeometry>
        </mxCell>
        <mxCell id="2TqGuWrXQzq1hM1gKgUR-48" style="rounded=0;orthogonalLoop=1;jettySize=auto;html=1;exitX=0.5;exitY=1;exitDx=0;exitDy=0;entryX=0.5;entryY=0;entryDx=0;entryDy=0;labelBackgroundColor=none;fontColor=default;" parent="1" source="2TqGuWrXQzq1hM1gKgUR-49" target="2TqGuWrXQzq1hM1gKgUR-55" edge="1">
          <mxGeometry relative="1" as="geometry">
            <mxPoint x="440" y="470" as="sourcePoint" />
          </mxGeometry>
        </mxCell>
        <mxCell id="2TqGuWrXQzq1hM1gKgUR-59" style="rounded=0;orthogonalLoop=1;jettySize=auto;html=1;exitX=0.5;exitY=1;exitDx=0;exitDy=0;entryX=0.5;entryY=0;entryDx=0;entryDy=0;" parent="1" source="2TqGuWrXQzq1hM1gKgUR-49" target="2TqGuWrXQzq1hM1gKgUR-57" edge="1">
          <mxGeometry relative="1" as="geometry" />
        </mxCell>
        <mxCell id="2TqGuWrXQzq1hM1gKgUR-60" style="rounded=0;orthogonalLoop=1;jettySize=auto;html=1;exitX=0.5;exitY=1;exitDx=0;exitDy=0;entryX=0.5;entryY=0;entryDx=0;entryDy=0;" parent="1" source="2TqGuWrXQzq1hM1gKgUR-49" target="2TqGuWrXQzq1hM1gKgUR-56" edge="1">
          <mxGeometry relative="1" as="geometry" />
        </mxCell>
        <mxCell id="2TqGuWrXQzq1hM1gKgUR-61" style="rounded=0;orthogonalLoop=1;jettySize=auto;html=1;exitX=0.5;exitY=1;exitDx=0;exitDy=0;entryX=0.5;entryY=0;entryDx=0;entryDy=0;" parent="1" source="2TqGuWrXQzq1hM1gKgUR-49" target="2TqGuWrXQzq1hM1gKgUR-58" edge="1">
          <mxGeometry relative="1" as="geometry" />
        </mxCell>
        <mxCell id="2TqGuWrXQzq1hM1gKgUR-49" value="&lt;span style=&quot;font-size: 10px;&quot;&gt;qna&lt;/span&gt;&lt;br&gt;&lt;div&gt;&lt;span style=&quot;font-size: 10px;&quot;&gt;(묻고답하기)&lt;/span&gt;&lt;/div&gt;" style="rounded=0;whiteSpace=wrap;html=1;labelBackgroundColor=none;" parent="1" vertex="1">
          <mxGeometry x="364" y="410" width="100" height="50" as="geometry" />
        </mxCell>
        <mxCell id="2TqGuWrXQzq1hM1gKgUR-50" value="&lt;span style=&quot;font-size: 10px;&quot;&gt;&lt;font color=&quot;#ff0000&quot;&gt;&lt;u&gt;no&lt;/u&gt;&lt;/font&gt;&lt;/span&gt;&lt;div&gt;&lt;span style=&quot;font-size: 10px;&quot;&gt;&lt;font color=&quot;#ff0000&quot;&gt;&lt;u&gt;(글번호)&lt;/u&gt;&lt;/font&gt;&lt;/span&gt;&lt;/div&gt;" style="ellipse;whiteSpace=wrap;html=1;labelBackgroundColor=none;rounded=0;" parent="1" vertex="1">
          <mxGeometry x="50" y="520" width="70" height="40" as="geometry" />
        </mxCell>
        <mxCell id="2TqGuWrXQzq1hM1gKgUR-51" value="&lt;div&gt;&lt;font size=&quot;1&quot;&gt;parno&lt;/font&gt;&lt;/div&gt;&lt;div&gt;&lt;font size=&quot;1&quot;&gt;(부모글번호)&lt;/font&gt;&lt;/div&gt;" style="ellipse;whiteSpace=wrap;html=1;labelBackgroundColor=none;rounded=0;" parent="1" vertex="1">
          <mxGeometry x="230" y="520" width="70" height="40" as="geometry" />
        </mxCell>
        <mxCell id="2TqGuWrXQzq1hM1gKgUR-52" value="&lt;font size=&quot;1&quot;&gt;content&lt;/font&gt;&lt;div&gt;&lt;font size=&quot;1&quot;&gt;(글내용)&lt;/font&gt;&lt;/div&gt;" style="ellipse;whiteSpace=wrap;html=1;labelBackgroundColor=none;rounded=0;" parent="1" vertex="1">
          <mxGeometry x="410" y="520" width="70" height="40" as="geometry" />
        </mxCell>
        <mxCell id="2TqGuWrXQzq1hM1gKgUR-53" value="&lt;font size=&quot;1&quot;&gt;resdate&lt;/font&gt;&lt;div&gt;&lt;font size=&quot;1&quot;&gt;(작성일시)&lt;/font&gt;&lt;/div&gt;" style="ellipse;whiteSpace=wrap;html=1;labelBackgroundColor=none;rounded=0;" parent="1" vertex="1">
          <mxGeometry x="500" y="520" width="70" height="40" as="geometry" />
        </mxCell>
        <mxCell id="2TqGuWrXQzq1hM1gKgUR-54" style="rounded=0;orthogonalLoop=1;jettySize=auto;html=1;exitX=0.5;exitY=1;exitDx=0;exitDy=0;entryX=0.5;entryY=0;entryDx=0;entryDy=0;labelBackgroundColor=none;fontColor=default;" parent="1" source="2TqGuWrXQzq1hM1gKgUR-49" target="2TqGuWrXQzq1hM1gKgUR-50" edge="1">
          <mxGeometry relative="1" as="geometry" />
        </mxCell>
        <mxCell id="2TqGuWrXQzq1hM1gKgUR-55" value="&lt;font size=&quot;1&quot;&gt;visited&lt;/font&gt;&lt;div&gt;&lt;font size=&quot;1&quot;&gt;(조회수)&lt;/font&gt;&lt;/div&gt;" style="ellipse;whiteSpace=wrap;html=1;labelBackgroundColor=none;rounded=0;" parent="1" vertex="1">
          <mxGeometry x="590" y="520" width="70" height="40" as="geometry" />
        </mxCell>
        <mxCell id="2TqGuWrXQzq1hM1gKgUR-56" value="&lt;font size=&quot;1&quot;&gt;plevel&lt;/font&gt;&lt;br&gt;&lt;div&gt;&lt;font size=&quot;1&quot;&gt;(글종류)&lt;/font&gt;&lt;/div&gt;" style="ellipse;whiteSpace=wrap;html=1;labelBackgroundColor=none;rounded=0;" parent="1" vertex="1">
          <mxGeometry x="140" y="520" width="70" height="40" as="geometry" />
        </mxCell>
        <mxCell id="2TqGuWrXQzq1hM1gKgUR-57" value="&lt;font size=&quot;1&quot;&gt;title&lt;/font&gt;&lt;div&gt;&lt;font size=&quot;1&quot;&gt;(글제목)&lt;/font&gt;&lt;/div&gt;" style="ellipse;whiteSpace=wrap;html=1;labelBackgroundColor=none;rounded=0;" parent="1" vertex="1">
          <mxGeometry x="320" y="520" width="70" height="40" as="geometry" />
        </mxCell>
        <mxCell id="gN5Aygna0xOIa7XHVr_V-9" style="edgeStyle=none;curved=1;rounded=0;orthogonalLoop=1;jettySize=auto;html=1;exitX=0.5;exitY=1;exitDx=0;exitDy=0;entryX=0.5;entryY=0;entryDx=0;entryDy=0;fontSize=12;startSize=8;endSize=8;" parent="1" source="2TqGuWrXQzq1hM1gKgUR-58" target="gN5Aygna0xOIa7XHVr_V-8" edge="1">
          <mxGeometry relative="1" as="geometry" />
        </mxCell>
        <mxCell id="2TqGuWrXQzq1hM1gKgUR-58" value="&lt;font color=&quot;#0000ff&quot; size=&quot;1&quot;&gt;aid&lt;/font&gt;&lt;div&gt;&lt;font color=&quot;#0000ff&quot; size=&quot;1&quot;&gt;(작성자아이디)&lt;/font&gt;&lt;/div&gt;" style="ellipse;whiteSpace=wrap;html=1;labelBackgroundColor=none;rounded=0;" parent="1" vertex="1">
          <mxGeometry x="680" y="520" width="70" height="40" as="geometry" />
        </mxCell>
        <mxCell id="2TqGuWrXQzq1hM1gKgUR-79" style="rounded=0;orthogonalLoop=1;jettySize=auto;html=1;exitX=0.5;exitY=1;exitDx=0;exitDy=0;entryX=0.5;entryY=0;entryDx=0;entryDy=0;labelBackgroundColor=none;fontColor=default;" parent="1" source="2TqGuWrXQzq1hM1gKgUR-83" target="2TqGuWrXQzq1hM1gKgUR-85" edge="1">
          <mxGeometry relative="1" as="geometry" />
        </mxCell>
        <mxCell id="2TqGuWrXQzq1hM1gKgUR-80" style="rounded=0;orthogonalLoop=1;jettySize=auto;html=1;exitX=0.5;exitY=1;exitDx=0;exitDy=0;entryX=0.5;entryY=0;entryDx=0;entryDy=0;labelBackgroundColor=none;fontColor=default;" parent="1" source="2TqGuWrXQzq1hM1gKgUR-83" target="2TqGuWrXQzq1hM1gKgUR-86" edge="1">
          <mxGeometry relative="1" as="geometry" />
        </mxCell>
        <mxCell id="2TqGuWrXQzq1hM1gKgUR-81" style="rounded=0;orthogonalLoop=1;jettySize=auto;html=1;exitX=0.5;exitY=1;exitDx=0;exitDy=0;entryX=0.5;entryY=0;entryDx=0;entryDy=0;labelBackgroundColor=none;fontColor=default;" parent="1" source="2TqGuWrXQzq1hM1gKgUR-83" target="2TqGuWrXQzq1hM1gKgUR-87" edge="1">
          <mxGeometry relative="1" as="geometry" />
        </mxCell>
        <mxCell id="2TqGuWrXQzq1hM1gKgUR-82" style="rounded=0;orthogonalLoop=1;jettySize=auto;html=1;exitX=0.5;exitY=1;exitDx=0;exitDy=0;entryX=0.5;entryY=0;entryDx=0;entryDy=0;labelBackgroundColor=none;fontColor=default;" parent="1" source="2TqGuWrXQzq1hM1gKgUR-83" target="2TqGuWrXQzq1hM1gKgUR-89" edge="1">
          <mxGeometry relative="1" as="geometry" />
        </mxCell>
        <mxCell id="2TqGuWrXQzq1hM1gKgUR-91" style="rounded=0;orthogonalLoop=1;jettySize=auto;html=1;exitX=0.5;exitY=1;exitDx=0;exitDy=0;" parent="1" source="2TqGuWrXQzq1hM1gKgUR-83" target="2TqGuWrXQzq1hM1gKgUR-90" edge="1">
          <mxGeometry relative="1" as="geometry" />
        </mxCell>
        <mxCell id="2TqGuWrXQzq1hM1gKgUR-83" value="&lt;span style=&quot;font-size: 10px;&quot;&gt;data&lt;/span&gt;&lt;div&gt;&lt;span style=&quot;font-size: 10px;&quot;&gt;(자료실)&lt;/span&gt;&lt;/div&gt;" style="rounded=0;whiteSpace=wrap;html=1;labelBackgroundColor=none;" parent="1" vertex="1">
          <mxGeometry x="363" y="820" width="100" height="50" as="geometry" />
        </mxCell>
        <mxCell id="2TqGuWrXQzq1hM1gKgUR-84" value="&lt;span style=&quot;font-size: 10px;&quot;&gt;&lt;u&gt;&lt;font color=&quot;#ff0000&quot;&gt;no&lt;/font&gt;&lt;/u&gt;&lt;/span&gt;&lt;div&gt;&lt;span style=&quot;font-size: 10px;&quot;&gt;&lt;u&gt;&lt;font color=&quot;#ff0000&quot;&gt;(글번호)&lt;/font&gt;&lt;/u&gt;&lt;/span&gt;&lt;/div&gt;" style="ellipse;whiteSpace=wrap;html=1;labelBackgroundColor=none;rounded=0;" parent="1" vertex="1">
          <mxGeometry x="159" y="920" width="70" height="40" as="geometry" />
        </mxCell>
        <mxCell id="2TqGuWrXQzq1hM1gKgUR-85" value="&lt;div&gt;&lt;font size=&quot;1&quot;&gt;title&lt;/font&gt;&lt;/div&gt;&lt;div&gt;&lt;font size=&quot;1&quot;&gt;(글제목)&lt;/font&gt;&lt;/div&gt;" style="ellipse;whiteSpace=wrap;html=1;labelBackgroundColor=none;rounded=0;" parent="1" vertex="1">
          <mxGeometry x="244" y="920" width="70" height="40" as="geometry" />
        </mxCell>
        <mxCell id="2TqGuWrXQzq1hM1gKgUR-86" value="&lt;font size=&quot;1&quot;&gt;content&lt;/font&gt;&lt;div&gt;&lt;font size=&quot;1&quot;&gt;(글내용)&lt;/font&gt;&lt;/div&gt;" style="ellipse;whiteSpace=wrap;html=1;labelBackgroundColor=none;rounded=0;" parent="1" vertex="1">
          <mxGeometry x="329" y="920" width="70" height="40" as="geometry" />
        </mxCell>
        <mxCell id="2TqGuWrXQzq1hM1gKgUR-87" value="&lt;font size=&quot;1&quot;&gt;resdate&lt;/font&gt;&lt;div&gt;&lt;font size=&quot;1&quot;&gt;(작성일시)&lt;/font&gt;&lt;/div&gt;" style="ellipse;whiteSpace=wrap;html=1;labelBackgroundColor=none;rounded=0;" parent="1" vertex="1">
          <mxGeometry x="499" y="920" width="70" height="40" as="geometry" />
        </mxCell>
        <mxCell id="2TqGuWrXQzq1hM1gKgUR-88" style="rounded=0;orthogonalLoop=1;jettySize=auto;html=1;exitX=0.5;exitY=1;exitDx=0;exitDy=0;entryX=0.635;entryY=0.064;entryDx=0;entryDy=0;entryPerimeter=0;labelBackgroundColor=none;fontColor=default;" parent="1" source="2TqGuWrXQzq1hM1gKgUR-83" target="2TqGuWrXQzq1hM1gKgUR-84" edge="1">
          <mxGeometry relative="1" as="geometry" />
        </mxCell>
        <mxCell id="2TqGuWrXQzq1hM1gKgUR-89" value="&lt;font size=&quot;1&quot;&gt;visited&lt;/font&gt;&lt;div&gt;&lt;font size=&quot;1&quot;&gt;(조회수)&lt;/font&gt;&lt;/div&gt;" style="ellipse;whiteSpace=wrap;html=1;labelBackgroundColor=none;rounded=0;" parent="1" vertex="1">
          <mxGeometry x="589" y="920" width="70" height="40" as="geometry" />
        </mxCell>
        <mxCell id="2TqGuWrXQzq1hM1gKgUR-90" value="&lt;font size=&quot;1&quot;&gt;datafile&lt;/font&gt;&lt;div&gt;&lt;font size=&quot;1&quot;&gt;(자료파일)&lt;/font&gt;&lt;/div&gt;" style="ellipse;whiteSpace=wrap;html=1;labelBackgroundColor=none;rounded=0;" parent="1" vertex="1">
          <mxGeometry x="409" y="920" width="70" height="40" as="geometry" />
        </mxCell>
        <mxCell id="gN5Aygna0xOIa7XHVr_V-42" style="edgeStyle=none;curved=1;rounded=0;orthogonalLoop=1;jettySize=auto;html=1;exitX=0.5;exitY=1;exitDx=0;exitDy=0;entryX=0.5;entryY=0;entryDx=0;entryDy=0;fontSize=12;startSize=8;endSize=8;" parent="1" source="2TqGuWrXQzq1hM1gKgUR-92" target="gN5Aygna0xOIa7XHVr_V-2" edge="1">
          <mxGeometry relative="1" as="geometry" />
        </mxCell>
        <mxCell id="gN5Aygna0xOIa7XHVr_V-43" style="edgeStyle=none;curved=1;rounded=0;orthogonalLoop=1;jettySize=auto;html=1;exitX=0.5;exitY=1;exitDx=0;exitDy=0;entryX=0.5;entryY=0;entryDx=0;entryDy=0;fontSize=12;startSize=8;endSize=8;" parent="1" source="2TqGuWrXQzq1hM1gKgUR-92" target="gN5Aygna0xOIa7XHVr_V-3" edge="1">
          <mxGeometry relative="1" as="geometry" />
        </mxCell>
        <mxCell id="gN5Aygna0xOIa7XHVr_V-44" style="edgeStyle=none;curved=1;rounded=0;orthogonalLoop=1;jettySize=auto;html=1;exitX=0.5;exitY=1;exitDx=0;exitDy=0;entryX=0.5;entryY=0;entryDx=0;entryDy=0;fontSize=12;startSize=8;endSize=8;" parent="1" source="2TqGuWrXQzq1hM1gKgUR-92" target="gN5Aygna0xOIa7XHVr_V-4" edge="1">
          <mxGeometry relative="1" as="geometry" />
        </mxCell>
        <mxCell id="gN5Aygna0xOIa7XHVr_V-45" style="edgeStyle=none;curved=1;rounded=0;orthogonalLoop=1;jettySize=auto;html=1;exitX=0.5;exitY=1;exitDx=0;exitDy=0;entryX=0.5;entryY=0;entryDx=0;entryDy=0;fontSize=12;startSize=8;endSize=8;" parent="1" source="2TqGuWrXQzq1hM1gKgUR-92" target="gN5Aygna0xOIa7XHVr_V-5" edge="1">
          <mxGeometry relative="1" as="geometry" />
        </mxCell>
        <mxCell id="gN5Aygna0xOIa7XHVr_V-46" style="edgeStyle=none;curved=1;rounded=0;orthogonalLoop=1;jettySize=auto;html=1;exitX=0.5;exitY=1;exitDx=0;exitDy=0;entryX=0.5;entryY=0;entryDx=0;entryDy=0;fontSize=12;startSize=8;endSize=8;" parent="1" source="2TqGuWrXQzq1hM1gKgUR-92" target="gN5Aygna0xOIa7XHVr_V-6" edge="1">
          <mxGeometry relative="1" as="geometry" />
        </mxCell>
        <mxCell id="2TqGuWrXQzq1hM1gKgUR-92" value="&lt;span style=&quot;font-size: 10px;&quot;&gt;member&lt;/span&gt;&lt;div&gt;&lt;span style=&quot;font-size: 10px;&quot;&gt;(회원)&lt;/span&gt;&lt;/div&gt;" style="rounded=0;whiteSpace=wrap;html=1;labelBackgroundColor=none;" parent="1" vertex="1">
          <mxGeometry x="326" y="590" width="100" height="50" as="geometry" />
        </mxCell>
        <mxCell id="2kS1vzcZXD9g6PHfNiw6-3" style="edgeStyle=orthogonalEdgeStyle;rounded=0;orthogonalLoop=1;jettySize=auto;html=1;exitX=0.5;exitY=1;exitDx=0;exitDy=0;entryX=0.5;entryY=1;entryDx=0;entryDy=0;" edge="1" parent="1" source="gN5Aygna0xOIa7XHVr_V-2" target="gN5Aygna0xOIa7XHVr_V-8">
          <mxGeometry relative="1" as="geometry" />
        </mxCell>
        <mxCell id="gN5Aygna0xOIa7XHVr_V-2" value="&lt;font color=&quot;#ff0000&quot;&gt;&lt;u&gt;&lt;span style=&quot;font-size: 10px;&quot;&gt;userid&lt;/span&gt;&lt;br&gt;&lt;/u&gt;&lt;/font&gt;&lt;div&gt;&lt;span style=&quot;font-size: 10px;&quot;&gt;&lt;font color=&quot;#ff0000&quot;&gt;&lt;u&gt;(아이디)&lt;/u&gt;&lt;/font&gt;&lt;/span&gt;&lt;/div&gt;" style="ellipse;whiteSpace=wrap;html=1;labelBackgroundColor=none;rounded=0;" parent="1" vertex="1">
          <mxGeometry x="230" y="660" width="70" height="40" as="geometry" />
        </mxCell>
        <mxCell id="gN5Aygna0xOIa7XHVr_V-3" value="&lt;span style=&quot;font-size: 10px;&quot;&gt;password&lt;/span&gt;&lt;br&gt;&lt;div&gt;&lt;span style=&quot;font-size: 10px;&quot;&gt;(비밀번호)&lt;/span&gt;&lt;/div&gt;" style="ellipse;whiteSpace=wrap;html=1;labelBackgroundColor=none;rounded=0;" parent="1" vertex="1">
          <mxGeometry x="306" y="660" width="70" height="40" as="geometry" />
        </mxCell>
        <mxCell id="gN5Aygna0xOIa7XHVr_V-4" value="&lt;span style=&quot;font-size: 10px;&quot;&gt;birth&lt;/span&gt;&lt;div&gt;&lt;span style=&quot;font-size: 10px;&quot;&gt;(생년월일)&lt;/span&gt;&lt;/div&gt;" style="ellipse;whiteSpace=wrap;html=1;labelBackgroundColor=none;rounded=0;" parent="1" vertex="1">
          <mxGeometry x="386" y="660" width="70" height="40" as="geometry" />
        </mxCell>
        <mxCell id="gN5Aygna0xOIa7XHVr_V-5" value="&lt;div&gt;&lt;span style=&quot;font-size: 10px;&quot;&gt;tel&lt;/span&gt;&lt;/div&gt;&lt;div&gt;&lt;span style=&quot;font-size: 10px;&quot;&gt;(전화번호)&lt;/span&gt;&lt;/div&gt;" style="ellipse;whiteSpace=wrap;html=1;labelBackgroundColor=none;rounded=0;" parent="1" vertex="1">
          <mxGeometry x="466" y="660" width="70" height="40" as="geometry" />
        </mxCell>
        <mxCell id="gN5Aygna0xOIa7XHVr_V-6" value="&lt;div&gt;&lt;span style=&quot;font-size: 10px;&quot;&gt;addr&lt;/span&gt;&lt;/div&gt;&lt;div&gt;&lt;span style=&quot;font-size: 10px;&quot;&gt;(회원주소)&lt;/span&gt;&lt;/div&gt;" style="ellipse;whiteSpace=wrap;html=1;labelBackgroundColor=none;rounded=0;" parent="1" vertex="1">
          <mxGeometry x="546" y="660" width="70" height="40" as="geometry" />
        </mxCell>
        <mxCell id="gN5Aygna0xOIa7XHVr_V-7" value="&lt;span style=&quot;font-size: 10px;&quot;&gt;&lt;font color=&quot;#ff0000&quot;&gt;&lt;u&gt;tno&lt;/u&gt;&lt;/font&gt;&lt;/span&gt;&lt;div&gt;&lt;span style=&quot;font-size: 10px;&quot;&gt;&lt;font color=&quot;#ff0000&quot;&gt;&lt;u&gt;(연번)&lt;/u&gt;&lt;/font&gt;&lt;/span&gt;&lt;/div&gt;" style="ellipse;whiteSpace=wrap;html=1;labelBackgroundColor=none;rounded=0;" parent="1" vertex="1">
          <mxGeometry x="40" y="70" width="70" height="40" as="geometry" />
        </mxCell>
        <mxCell id="gN5Aygna0xOIa7XHVr_V-8" value="글 등록" style="rhombus;whiteSpace=wrap;html=1;" parent="1" vertex="1">
          <mxGeometry x="660" y="660" width="110" height="50" as="geometry" />
        </mxCell>
        <mxCell id="gN5Aygna0xOIa7XHVr_V-11" value="&lt;font style=&quot;font-size: 12px;&quot; color=&quot;#0000ff&quot;&gt;aid (∞)&lt;/font&gt;" style="text;html=1;align=center;verticalAlign=middle;whiteSpace=wrap;rounded=0;fontSize=16;" parent="1" vertex="1">
          <mxGeometry x="720" y="630" width="60" height="30" as="geometry" />
        </mxCell>
        <mxCell id="gN5Aygna0xOIa7XHVr_V-12" value="&lt;font color=&quot;#ff0000&quot; style=&quot;font-size: 12px;&quot;&gt;userid (1)&lt;/font&gt;" style="text;html=1;align=center;verticalAlign=middle;whiteSpace=wrap;rounded=0;fontSize=16;" parent="1" vertex="1">
          <mxGeometry x="650" y="730" width="60" height="30" as="geometry" />
        </mxCell>
      </root>
    </mxGraphModel>
  </diagram>
</mxfile>
